<?xml version="1.0" encoding="UTF-8" standalone="no"?>
<!-- Created with Inkscape (http://www.inkscape.org/) -->

<svg
   version="1.1"
   id="svg1"
   width="240"
   height="240"
   viewBox="0 0 240 240"
   sodipodi:docname="color1_logo_transparent_background.svg"
   inkscape:version="1.3.2 (091e20e, 2023-11-25, custom)"
   xmlns:inkscape="http://www.inkscape.org/namespaces/inkscape"
   xmlns:sodipodi="http://sodipodi.sourceforge.net/DTD/sodipodi-0.dtd"
   xmlns="http://www.w3.org/2000/svg"
   xmlns:svg="http://www.w3.org/2000/svg">
  <defs
     id="defs1" />
  <sodipodi:namedview
     id="namedview1"
     pagecolor="#ffffff"
     bordercolor="#000000"
     borderopacity="0.25"
     inkscape:showpageshadow="2"
     inkscape:pageopacity="0.0"
     inkscape:pagecheckerboard="0"
     inkscape:deskcolor="#d1d1d1"
     inkscape:zoom="3.3875"
     inkscape:cx="120"
     inkscape:cy="120"
     inkscape:window-width="1920"
     inkscape:window-height="1009"
     inkscape:window-x="-8"
     inkscape:window-y="-8"
     inkscape:window-maximized="1"
     inkscape:current-layer="g1"
     inkscape:export-bgcolor="#ffffff6e">
    <inkscape:page
       x="0"
       y="0"
       inkscape:label="1"
       id="page1"
       width="240"
       height="240"
       margin="0"
       bleed="0"
       inkscape:export-filename="color1_logo_transparent_240x240.png"
       inkscape:export-xdpi="96"
       inkscape:export-ydpi="96" />
  </sodipodi:namedview>
  <g
     id="g1"
     inkscape:groupmode="layer"
     inkscape:label="1">
    <path
       id="path1"
       d="m 123.629,403.629 c 0,-1.289 -0.231,-2.457 -0.699,-3.59 -0.469,-1.09 -1.09,-2.027 -1.879,-2.848 -0.821,-0.781 -1.75,-1.453 -2.891,-1.882 -1.09,-0.469 -2.262,-0.7 -3.551,-0.7 H 49.9219 c -1.6836,0 -3.4414,0.192 -5.3516,0.59 -1.9101,0.391 -3.789,1.012 -5.6601,1.832 -1.8789,0.821 -3.6407,1.879 -5.3594,3.199 -1.6719,1.29 -3.1992,2.891 -4.4922,4.77 -1.3281,1.84 -2.3789,4.02 -3.1602,6.48 -0.7773,2.469 -1.1679,5.239 -1.1679,8.29 v 48.55 c 0,1.68 0.1914,3.442 0.5781,5.352 0.3906,1.918 1.0195,3.789 1.8398,5.668 0.8204,1.871 1.9102,3.629 3.2422,5.351 1.3282,1.68 2.9297,3.2 4.8086,4.489 1.8321,1.332 3.9805,2.379 6.4414,3.16 2.418,0.781 5.1992,1.18 8.2813,1.18 H 122.809 V 475.59 H 49.9219 c -2.3438,0 -4.1406,-0.629 -5.3906,-1.879 -1.25,-1.25 -1.8711,-3.09 -1.8711,-5.512 V 419.77 c 0,-2.27 0.6211,-4.071 1.9101,-5.321 1.25,-1.289 3.0508,-1.91 5.3516,-1.91 h 55.7771 v 22.5 H 57.9688 v 18.051 h 56.6402 c 1.289,0 2.461,-0.238 3.551,-0.711 1.141,-0.5 2.07,-1.129 2.891,-1.988 0.789,-0.821 1.41,-1.762 1.879,-2.852 0.468,-1.09 0.699,-2.23 0.699,-3.48 z"
       style="fill:#ff5e00;fill-opacity:1;fill-rule:nonzero;stroke:none"
       transform="matrix(0.13333333,0,0,-0.13333333,0,240)" />
    <path
       id="path2"
       d="m 241.129,460.27 c 0,-4.098 -0.508,-7.77 -1.52,-10.969 -0.98,-3.211 -2.339,-6.063 -4.097,-8.52 -1.723,-2.461 -3.711,-4.57 -5.942,-6.332 -2.269,-1.719 -4.609,-3.16 -7.07,-4.289 -2.461,-1.14 -4.961,-1.961 -7.461,-2.461 -2.5,-0.469 -4.84,-0.75 -7.07,-0.75 l 37.461,-32.34 h -27.731 l -37.39,32.34 h -12.887 v 17.93 h 40.547 c 2.261,0.199 4.301,0.672 6.172,1.41 1.879,0.781 3.48,1.801 4.839,3.09 1.329,1.281 2.391,2.851 3.129,4.641 0.743,1.8 1.09,3.91 1.09,6.25 v 11.289 c 0,1.019 -0.109,1.8 -0.347,2.312 -0.274,0.539 -0.582,0.93 -0.973,1.168 -0.399,0.27 -0.828,0.43 -1.258,0.473 -0.422,0.039 -0.82,0.078 -1.211,0.078 h -59.18 v -80.981 h -17.929 v 89.84 c 0,1.25 0.238,2.43 0.711,3.563 0.468,1.09 1.09,2.027 1.91,2.886 0.777,0.821 1.758,1.442 2.848,1.911 1.101,0.472 2.308,0.711 3.601,0.711 h 68.039 c 4.031,0 7.391,-0.75 10.16,-2.192 2.731,-1.449 5,-3.238 6.719,-5.43 1.723,-2.187 2.973,-4.57 3.711,-7.07 0.781,-2.539 1.129,-4.918 1.129,-7.109 z"
       style="fill:#ff5e00;fill-opacity:1;fill-rule:nonzero;stroke:none"
       transform="matrix(0.13333333,0,0,-0.13333333,0,240)" />
    <path
       id="path3"
       d="m 259.301,394.609 h 17.9297 v 98.9102 H 259.301 Z"
       style="fill:#ff5e00;fill-opacity:1;fill-rule:nonzero;stroke:none"
       transform="matrix(0.13333333,0,0,-0.13333333,0,240)" />
    <path
       id="path4"
       d="m 382.809,488.121 c 0.671,-1.601 0.902,-3.281 0.632,-5.07 -0.32,-1.762 -1.019,-3.281 -2.23,-4.5 l -59.18,-66.012 h 60.629 v -17.93 h -80.82 c -1.762,0 -3.36,0.512 -4.891,1.481 -1.48,0.98 -2.57,2.308 -3.32,3.91 -0.777,1.602 -1.008,3.281 -0.738,5.039 0.308,1.723 1.058,3.242 2.187,4.531 l 59.301,66.02 h -60.75 v 17.93 h 80.98 c 1.719,0 3.36,-0.508 4.84,-1.489 1.492,-1.011 2.621,-2.301 3.36,-3.91 z"
       style="fill:#ff5e00;fill-opacity:1;fill-rule:nonzero;stroke:none"
       transform="matrix(0.13333333,0,0,-0.13333333,0,240)" />
    <path
       id="path5"
       d="m 483.551,488.121 c 0.711,-1.601 0.898,-3.281 0.629,-5.07 -0.27,-1.762 -1.02,-3.281 -2.231,-4.5 l -59.14,-66.012 h 60.632 v -17.93 h -80.863 c -1.719,0 -3.359,0.512 -4.848,1.481 -1.48,0.98 -2.609,2.308 -3.351,3.91 -0.789,1.602 -1.02,3.281 -0.707,5.039 0.277,1.723 1.019,3.242 2.148,4.531 l 59.34,66.02 h -60.781 v 17.93 h 80.973 c 1.757,0 3.359,-0.508 4.847,-1.489 1.52,-1.011 2.61,-2.301 3.352,-3.91 z"
       style="fill:#ff5e00;fill-opacity:1;fill-rule:nonzero;stroke:none"
       transform="matrix(0.13333333,0,0,-0.13333333,0,240)" />
    <path
       id="path6"
       d="m 590.512,394.609 h -81.801 c -1.289,0 -2.461,0.231 -3.551,0.7 -1.14,0.429 -2.07,1.101 -2.89,1.882 -0.79,0.821 -1.411,1.758 -1.879,2.848 -0.469,1.133 -0.7,2.301 -0.7,3.59 v 89.891 h 17.93 v -80.981 h 72.891 z"
       style="fill:#ff5e00;fill-opacity:1;fill-rule:nonzero;stroke:none"
       transform="matrix(0.13333333,0,0,-0.13333333,0,240)" />
    <path
       id="path7"
       d="m 687.77,460.391 c 0,-4.063 -0.54,-7.731 -1.559,-10.942 -1.051,-3.238 -2.422,-6.051 -4.102,-8.508 -1.718,-2.461 -3.711,-4.57 -5.98,-6.332 -2.258,-1.757 -4.609,-3.16 -7.07,-4.3 -2.418,-1.129 -4.879,-1.95 -7.418,-2.457 -2.5,-0.512 -4.84,-0.743 -7.071,-0.743 h -7.23 v -32.5 h -18.039 v 32.5 h -7.192 c -2.23,0 -4.57,0.231 -7.07,0.743 -2.5,0.507 -5,1.328 -7.461,2.457 -2.457,1.14 -4.808,2.543 -7.066,4.3 -2.231,1.762 -4.223,3.871 -5.942,6.332 -1.761,2.457 -3.121,5.309 -4.14,8.508 -1.051,3.25 -1.559,6.922 -1.559,10.942 v 33.129 h 17.93 v -33.129 c 0,-2.34 0.347,-4.45 1.09,-6.289 0.738,-1.872 1.8,-3.481 3.129,-4.801 1.32,-1.332 2.929,-2.352 4.839,-3.051 1.911,-0.738 4.02,-1.09 6.371,-1.09 h 32.34 c 1.719,0.27 3.481,0.621 5.27,1.09 1.801,0.43 3.398,1.172 4.89,2.23 1.481,1.051 2.692,2.54 3.668,4.411 0.942,1.879 1.442,4.379 1.442,7.5 v 33.129 h 17.93 z"
       style="fill:#ff5e00;fill-opacity:1;fill-rule:nonzero;stroke:none"
       transform="matrix(0.13333333,0,0,-0.13333333,0,240)" />
    <path
       id="path8"
       d="m 831.129,435.039 h -56.5977 v 18.0508 h 56.5977 z m 8.09,-40.43 h -64.688 c -2.5,0 -5.191,0.43 -8.16,1.332 -2.93,0.86 -5.672,2.297 -8.172,4.289 -2.5,2 -4.609,4.61 -6.289,7.782 -1.64,3.199 -2.5,7.148 -2.5,11.758 v 64.679 c 0,1.25 0.238,2.43 0.711,3.563 0.43,1.09 1.09,2.027 1.867,2.886 0.821,0.821 1.762,1.442 2.891,1.911 1.101,0.472 2.269,0.711 3.562,0.711 h 80.778 V 475.59 H 767.34 v -55.82 c 0,-2.348 0.629,-4.149 1.879,-5.36 1.25,-1.25 3.051,-1.871 5.429,-1.871 h 64.571 z"
       style="fill:#ff5e00;fill-opacity:1;fill-rule:nonzero;stroke:none"
       transform="matrix(0.13333333,0,0,-0.13333333,0,240)" />
    <path
       id="path9"
       d="m 901.68,458.199 30.23,35.321 h 24.461 L 913.828,443.91 956.09,394.609 H 931.762 L 901.68,429.648 871.762,394.609 H 847.34 l 42.23,49.301 -42.34,49.61 h 24.25 z"
       style="fill:#ff5e00;fill-opacity:1;fill-rule:nonzero;stroke:none"
       transform="matrix(0.13333333,0,0,-0.13333333,0,240)" />
    <path
       id="path10"
       d="m 1054.1,394.609 h -64.69 c -1.64,0 -3.43,0.192 -5.351,0.59 -1.911,0.391 -3.789,1.012 -5.661,1.832 -1.839,0.821 -3.628,1.879 -5.308,3.199 -1.719,1.29 -3.25,2.891 -4.539,4.77 -1.321,1.84 -2.34,4.02 -3.121,6.48 -0.782,2.469 -1.168,5.239 -1.168,8.29 v 48.55 c 0,1.68 0.187,3.442 0.578,5.352 0.39,1.918 0.98,3.789 1.801,5.668 0.859,1.871 1.91,3.629 3.238,5.351 1.332,1.68 2.93,3.2 4.812,4.489 1.868,1.332 4.02,2.379 6.438,3.16 2.461,0.781 5.199,1.18 8.281,1.18 h 64.69 v -17.93 h -64.69 c -2.34,0 -4.14,-0.629 -5.39,-1.879 -1.211,-1.25 -1.829,-3.09 -1.829,-5.512 V 419.77 c 0,-2.27 0.618,-4.071 1.868,-5.321 1.293,-1.289 3.05,-1.91 5.351,-1.91 h 64.69 z"
       style="fill:#ff5e00;fill-opacity:1;fill-rule:nonzero;stroke:none"
       transform="matrix(0.13333333,0,0,-0.13333333,0,240)" />
    <path
       id="path11"
       d="m 1168.09,394.609 h -17.93 v 24.262 h -63.01 v -24.262 h -17.93 v 49.45 c 0,7.23 1.21,13.871 3.71,19.921 2.5,6.059 5.94,11.29 10.35,15.668 4.42,4.372 9.61,7.774 15.67,10.192 6.01,2.461 12.57,3.68 19.72,3.68 h 40.39 c 1.25,0 2.42,-0.239 3.52,-0.711 1.09,-0.469 2.07,-1.09 2.89,-1.911 0.86,-0.859 1.48,-1.796 1.95,-2.886 0.47,-1.133 0.67,-2.313 0.67,-3.563 z m -80.94,42.231 h 63.01 v 38.75 h -31.49 c -0.58,0 -1.72,-0.078 -3.51,-0.238 -1.76,-0.192 -3.79,-0.582 -6.14,-1.211 -2.3,-0.661 -4.76,-1.641 -7.34,-2.969 -2.58,-1.332 -4.92,-3.16 -7.11,-5.551 -2.15,-2.34 -3.95,-5.269 -5.31,-8.781 -1.41,-3.52 -2.11,-7.781 -2.11,-12.781 z"
       style="fill:#ff5e00;fill-opacity:1;fill-rule:nonzero;stroke:none"
       transform="matrix(0.13333333,0,0,-0.13333333,0,240)" />
    <path
       id="path12"
       d="m 1287.89,493.52 -46.84,-95.399 c -0.74,-1.48 -1.79,-2.652 -3.28,-3.551 -1.44,-0.898 -3.04,-1.332 -4.76,-1.332 -1.72,0 -3.28,0.434 -4.73,1.332 -1.44,0.899 -2.58,2.071 -3.36,3.551 l -46.76,95.399 h 20.08 l 34.77,-71.25 34.88,71.25 z"
       style="fill:#ff5e00;fill-opacity:1;fill-rule:nonzero;stroke:none"
       transform="matrix(0.13333333,0,0,-0.13333333,0,240)" />
    <path
       id="path13"
       d="m 1392.5,394.609 h -17.93 v 24.262 h -63.01 v -24.262 h -17.93 v 49.45 c 0,7.23 1.21,13.871 3.71,19.921 2.5,6.059 5.94,11.29 10.36,15.668 4.41,4.372 9.6,7.774 15.66,10.192 6.02,2.461 12.58,3.68 19.69,3.68 h 40.43 c 1.25,0 2.42,-0.239 3.51,-0.711 1.1,-0.469 2.07,-1.09 2.89,-1.911 0.82,-0.859 1.49,-1.796 1.96,-2.886 0.43,-1.133 0.66,-2.313 0.66,-3.563 z m -80.94,42.231 h 63.01 v 38.75 h -31.52 c -0.55,0 -1.68,-0.078 -3.48,-0.238 -1.76,-0.192 -3.79,-0.582 -6.13,-1.211 -2.31,-0.661 -4.77,-1.641 -7.35,-2.969 -2.57,-1.332 -4.92,-3.16 -7.11,-5.551 -2.14,-2.34 -3.94,-5.269 -5.31,-8.781 -1.4,-3.52 -2.11,-7.781 -2.11,-12.781 z"
       style="fill:#ff5e00;fill-opacity:1;fill-rule:nonzero;stroke:none"
       transform="matrix(0.13333333,0,0,-0.13333333,0,240)" />
    <path
       id="path14"
       d="m 1502.73,475.59 h -39.53 v -80.981 h -17.93 v 80.981 h -39.57 v 17.93 h 97.03 z"
       style="fill:#ff5e00;fill-opacity:1;fill-rule:nonzero;stroke:none"
       transform="matrix(0.13333333,0,0,-0.13333333,0,240)" />
    <path
       id="path15"
       d="m 1516.02,394.609 h 17.9297 v 98.9102 H 1516.02 Z"
       style="fill:#ff5e00;fill-opacity:1;fill-rule:nonzero;stroke:none"
       transform="matrix(0.13333333,0,0,-0.13333333,0,240)" />
    <path
       id="path16"
       d="m 1658.71,434.609 c 0,-6.019 -1.01,-11.558 -3.09,-16.597 -2.07,-5.082 -4.96,-9.461 -8.63,-13.133 -3.67,-3.668 -8.04,-6.52 -13.08,-8.59 -5,-2.027 -10.51,-3.051 -16.45,-3.051 h -24.26 c -5.93,0 -11.44,1.024 -16.48,3.051 -5.04,2.07 -9.42,4.922 -13.09,8.59 -3.71,3.672 -6.56,8.051 -8.67,13.133 -2.11,5.039 -3.12,10.578 -3.12,16.597 v 18.911 c 0,5.968 1.01,11.48 3.12,16.558 2.11,5.082 4.96,9.453 8.67,13.121 3.67,3.641 8.05,6.531 13.09,8.602 5.04,2.07 10.55,3.078 16.48,3.078 h 24.26 c 5.94,0 11.45,-1.008 16.45,-3.078 5.04,-2.071 9.41,-4.961 13.08,-8.602 3.67,-3.668 6.56,-8.039 8.63,-13.121 2.08,-5.078 3.09,-10.59 3.09,-16.558 z m -17.93,18.911 c 0,3.511 -0.55,6.71 -1.68,9.601 -1.13,2.899 -2.73,5.359 -4.76,7.391 -2.04,2.027 -4.5,3.629 -7.39,4.758 -2.85,1.14 -6.01,1.679 -9.49,1.679 h -24.26 c -3.47,0 -6.68,-0.539 -9.57,-1.679 -2.85,-1.129 -5.31,-2.731 -7.38,-4.758 -2.07,-2.032 -3.67,-4.492 -4.8,-7.391 -1.14,-2.891 -1.68,-6.09 -1.68,-9.601 v -18.911 c 0,-3.558 0.54,-6.757 1.68,-9.609 1.13,-2.891 2.73,-5.352 4.8,-7.379 2.07,-2.07 4.53,-3.641 7.38,-4.769 2.89,-1.133 6.1,-1.68 9.57,-1.68 h 24.14 c 3.48,0 6.68,0.547 9.54,1.68 2.89,1.128 5.35,2.699 7.42,4.769 2.07,2.027 3.67,4.488 4.8,7.379 1.13,2.852 1.68,6.051 1.68,9.609 z"
       style="fill:#ff5e00;fill-opacity:1;fill-rule:nonzero;stroke:none"
       transform="matrix(0.13333333,0,0,-0.13333333,0,240)" />
    <path
       id="path17"
       d="m 1775.27,402.27 c 0,-1.29 -0.23,-2.5 -0.74,-3.598 -0.47,-1.094 -1.09,-2.031 -1.91,-2.852 -0.82,-0.82 -1.76,-1.441 -2.85,-1.91 -1.14,-0.43 -2.31,-0.672 -3.52,-0.672 -1.13,0 -2.23,0.203 -3.36,0.633 -1.13,0.391 -2.11,1.051 -3.01,1.988 l -65.5,68.403 v -69.653 h -17.93 v 91.25 c 0,1.84 0.5,3.52 1.56,5 1.01,1.481 2.34,2.621 3.94,3.321 1.72,0.699 3.44,0.859 5.24,0.55 1.79,-0.351 3.36,-1.21 4.65,-2.539 l 65.5,-68.32 v 69.649 h 17.93 z"
       style="fill:#ff5e00;fill-opacity:1;fill-rule:nonzero;stroke:none"
       transform="matrix(0.13333333,0,0,-0.13333333,0,240)" />
    <path
       id="path18"
       d="m 424.301,291.988 c 0,-3.547 -0.473,-6.758 -1.371,-9.566 -0.899,-2.813 -2.071,-5.313 -3.551,-7.461 -1.449,-2.191 -3.207,-4.02 -5.16,-5.551 -1.989,-1.519 -4.02,-2.73 -6.129,-3.711 -2.11,-0.969 -4.262,-1.679 -6.449,-2.148 -2.192,-0.461 -4.262,-0.66 -6.172,-0.66 h -69.18 v 17.929 h 69.18 c 3.441,0 6.09,1.02 8.011,3.008 1.911,2.031 2.891,4.762 2.891,8.16 0,1.641 -0.281,3.172 -0.781,4.532 -0.512,1.371 -1.211,2.582 -2.149,3.601 -0.98,1.008 -2.113,1.789 -3.48,2.34 -1.332,0.551 -2.852,0.82 -4.492,0.82 h -41.25 c -2.891,0 -6.02,0.508 -9.379,1.559 -3.36,1.019 -6.481,2.699 -9.328,5 -2.891,2.308 -5.282,5.32 -7.192,9.031 -1.91,3.75 -2.851,8.277 -2.851,13.668 0,5.352 0.941,9.922 2.851,13.59 1.91,3.711 4.301,6.723 7.192,9.07 2.847,2.301 5.968,3.981 9.328,5.031 3.359,1.02 6.488,1.532 9.379,1.532 h 61.011 v -17.934 h -61.011 c -3.399,0 -6.059,-1.019 -7.969,-3.09 -1.91,-2.066 -2.852,-4.797 -2.852,-8.199 0,-3.48 0.942,-6.168 2.852,-8.16 1.91,-2.039 4.57,-3.008 7.969,-3.008 h 41.371 c 1.949,-0.043 3.98,-0.32 6.129,-0.82 2.191,-0.473 4.332,-1.211 6.441,-2.231 2.149,-1.019 4.18,-2.3 6.141,-3.832 1.91,-1.519 3.629,-3.398 5.109,-5.539 1.488,-2.148 2.699,-4.648 3.559,-7.469 0.859,-2.808 1.332,-5.968 1.332,-9.492 z"
       style="fill:#ff5e00;fill-opacity:1;fill-rule:nonzero;stroke:none"
       transform="matrix(0.13333333,0,0,-0.13333333,0,240)" />
    <path
       id="path19"
       d="m 520.469,303.281 h -56.5977 v 18.0898 h 56.5977 z m 8.082,-40.39 h -64.68 c -2.5,0 -5.199,0.429 -8.133,1.289 -2.968,0.859 -5.66,2.3 -8.199,4.3 -2.5,2.032 -4.57,4.61 -6.25,7.809 -1.68,3.199 -2.539,7.109 -2.539,11.762 v 64.679 c 0,1.25 0.23,2.43 0.699,3.52 0.473,1.09 1.102,2.07 1.922,2.891 0.777,0.82 1.75,1.48 2.848,1.949 1.09,0.43 2.301,0.672 3.59,0.672 h 80.742 V 343.828 H 456.68 v -55.777 c 0,-2.352 0.621,-4.141 1.871,-5.391 1.25,-1.211 3.051,-1.84 5.469,-1.84 h 64.531 z"
       style="fill:#ff5e00;fill-opacity:1;fill-rule:nonzero;stroke:none"
       transform="matrix(0.13333333,0,0,-0.13333333,0,240)" />
    <path
       id="path20"
       d="m 644.691,328.52 c 0,-4.071 -0.511,-7.739 -1.531,-10.942 -1.012,-3.238 -2.379,-6.058 -4.101,-8.519 -1.719,-2.457 -3.707,-4.571 -5.938,-6.329 -2.262,-1.75 -4.601,-3.16 -7.07,-4.289 -2.461,-1.14 -4.961,-1.961 -7.461,-2.461 -2.5,-0.511 -4.879,-0.75 -7.07,-0.75 l 37.46,-32.339 H 621.25 L 583.871,295.23 H 570.98 v 17.93 h 40.54 c 2.269,0.16 4.3,0.629 6.179,1.41 1.871,0.739 3.473,1.758 4.84,3.051 1.332,1.289 2.383,2.848 3.121,4.68 0.75,1.801 1.102,3.871 1.102,6.219 v 11.32 c 0,1.019 -0.121,1.762 -0.391,2.308 -0.242,0.551 -0.551,0.942 -0.941,1.172 -0.391,0.27 -0.821,0.391 -1.25,0.469 -0.43,0.039 -0.86,0.039 -1.211,0.039 h -59.18 v -80.937 h -17.93 v 89.839 c 0,1.25 0.231,2.43 0.7,3.52 0.472,1.09 1.101,2.07 1.882,2.891 0.821,0.82 1.758,1.48 2.887,1.949 1.094,0.43 2.301,0.672 3.551,0.672 h 68.09 c 3.98,0 7.383,-0.711 10.152,-2.153 2.738,-1.449 5,-3.281 6.719,-5.468 1.719,-2.192 2.969,-4.532 3.711,-7.071 0.75,-2.5 1.14,-4.879 1.14,-7.109 z"
       style="fill:#ff5e00;fill-opacity:1;fill-rule:nonzero;stroke:none"
       transform="matrix(0.13333333,0,0,-0.13333333,0,240)" />
    <path
       id="path21"
       d="M 761.09,361.762 714.301,266.41 c -0.75,-1.488 -1.84,-2.66 -3.281,-3.558 -1.45,-0.903 -3.051,-1.372 -4.809,-1.372 -1.723,0 -3.281,0.469 -4.731,1.372 -1.441,0.898 -2.57,2.07 -3.359,3.558 l -46.75,95.352 h 20.078 l 34.762,-71.211 34.879,71.211 z"
       style="fill:#ff5e00;fill-opacity:1;fill-rule:nonzero;stroke:none"
       transform="matrix(0.13333333,0,0,-0.13333333,0,240)" />
    <path
       id="path22"
       d="m 771.371,262.891 h 17.9297 v 98.8711 H 771.371 Z"
       style="fill:#ff5e00;fill-opacity:1;fill-rule:nonzero;stroke:none"
       transform="matrix(0.13333333,0,0,-0.13333333,0,240)" />
    <path
       id="path23"
       d="m 898.828,262.891 h -64.687 c -1.641,0 -3.442,0.199 -5.352,0.589 -1.91,0.391 -3.789,0.969 -5.668,1.79 -1.832,0.859 -3.633,1.921 -5.312,3.21 -1.719,1.321 -3.239,2.93 -4.528,4.758 -1.332,1.883 -2.34,4.032 -3.121,6.492 -0.781,2.461 -1.18,5.231 -1.18,8.321 v 48.551 c 0,1.636 0.2,3.437 0.59,5.347 0.391,1.922 0.981,3.789 1.801,5.672 0.859,1.828 1.91,3.629 3.238,5.309 1.332,1.718 2.93,3.199 4.801,4.531 1.879,1.328 4.031,2.34 6.449,3.129 2.422,0.781 5.192,1.172 8.282,1.172 h 64.687 v -17.934 h -64.687 c -2.34,0 -4.141,-0.629 -5.391,-1.84 -1.25,-1.25 -1.84,-3.078 -1.84,-5.539 v -48.398 c 0,-2.313 0.629,-4.071 1.879,-5.352 1.289,-1.25 3.051,-1.879 5.352,-1.879 h 64.687 z"
       style="fill:#ff5e00;fill-opacity:1;fill-rule:nonzero;stroke:none"
       transform="matrix(0.13333333,0,0,-0.13333333,0,240)" />
    <path
       id="path24"
       d="m 997.109,303.281 h -56.6406 v 18.0898 h 56.6406 z m 8.051,-40.39 h -64.691 c -2.457,0 -5.199,0.429 -8.129,1.289 -2.93,0.859 -5.66,2.3 -8.16,4.3 -2.5,2.032 -4.61,4.61 -6.289,7.809 -1.68,3.199 -2.5,7.109 -2.5,11.762 v 64.679 c 0,1.25 0.23,2.43 0.66,3.52 0.469,1.09 1.097,2.07 1.918,2.891 0.82,0.82 1.761,1.48 2.851,1.949 1.09,0.43 2.301,0.672 3.59,0.672 h 80.75 v -17.934 h -71.84 v -55.777 c 0,-2.352 0.629,-4.141 1.84,-5.391 1.25,-1.211 3.078,-1.84 5.461,-1.84 h 64.539 z"
       style="fill:#ff5e00;fill-opacity:1;fill-rule:nonzero;stroke:none"
       transform="matrix(0.13333333,0,0,-0.13333333,0,240)" />
    <path
       id="path25"
       d="m 1117.19,291.988 c 0,-3.547 -0.47,-6.758 -1.37,-9.566 -0.9,-2.813 -2.07,-5.313 -3.55,-7.461 -1.45,-2.191 -3.21,-4.02 -5.16,-5.551 -1.99,-1.519 -4.02,-2.73 -6.13,-3.711 -2.11,-0.969 -4.26,-1.679 -6.45,-2.148 -2.19,-0.461 -4.26,-0.66 -6.17,-0.66 h -69.18 v 17.929 h 69.18 c 3.44,0 6.09,1.02 8.01,3.008 1.91,2.031 2.89,4.762 2.89,8.16 0,1.641 -0.28,3.172 -0.78,4.532 -0.51,1.371 -1.21,2.582 -2.15,3.601 -0.98,1.008 -2.11,1.789 -3.48,2.34 -1.33,0.551 -2.85,0.82 -4.49,0.82 h -41.25 c -2.89,0 -6.02,0.508 -9.38,1.559 -3.35,1.019 -6.48,2.699 -9.33,5 -2.89,2.308 -5.28,5.32 -7.19,9.031 -1.91,3.75 -2.85,8.277 -2.85,13.668 0,5.352 0.94,9.922 2.85,13.59 1.91,3.711 4.3,6.723 7.19,9.07 2.85,2.301 5.98,3.981 9.33,5.031 3.36,1.02 6.49,1.532 9.38,1.532 h 61.01 v -17.934 h -61.01 c -3.4,0 -6.06,-1.019 -7.97,-3.09 -1.91,-2.066 -2.85,-4.797 -2.85,-8.199 0,-3.48 0.94,-6.168 2.85,-8.16 1.91,-2.039 4.57,-3.008 7.97,-3.008 h 41.37 c 1.95,-0.043 3.98,-0.32 6.13,-0.82 2.19,-0.473 4.34,-1.211 6.44,-2.231 2.15,-1.019 4.18,-2.3 6.14,-3.832 1.91,-1.519 3.63,-3.398 5.11,-5.539 1.49,-2.148 2.7,-4.648 3.56,-7.469 0.86,-2.808 1.33,-5.968 1.33,-9.492 z"
       style="fill:#ff5e00;fill-opacity:1;fill-rule:nonzero;stroke:none"
       transform="matrix(0.13333333,0,0,-0.13333333,0,240)" />
    <path
       id="path26"
       d="m 1268.83,262.891 h -81.8 c -1.29,0 -2.5,0.199 -3.59,0.66 -1.1,0.469 -2.03,1.097 -2.85,1.918 -0.82,0.781 -1.45,1.761 -1.92,2.851 -0.43,1.09 -0.66,2.301 -0.66,3.59 v 89.852 h 17.93 V 280.82 h 72.89 z"
       style="fill:#ff5e00;fill-opacity:1;fill-rule:nonzero;stroke:none"
       transform="matrix(0.13333333,0,0,-0.13333333,0,240)" />
    <path
       id="path27"
       d="m 1372.81,262.891 h -81.79 c -1.29,0 -2.47,0.199 -3.56,0.66 -1.13,0.469 -2.07,1.097 -2.89,1.918 -0.78,0.781 -1.41,1.761 -1.87,2.851 -0.47,1.09 -0.71,2.301 -0.71,3.59 v 89.852 h 17.93 V 280.82 h 72.89 z"
       style="fill:#ff5e00;fill-opacity:1;fill-rule:nonzero;stroke:none"
       transform="matrix(0.13333333,0,0,-0.13333333,0,240)" />
    <path
       id="path28"
       d="m 1474.53,262.891 h -64.69 c -1.64,0 -3.43,0.199 -5.31,0.589 -1.91,0.391 -3.83,0.969 -5.66,1.79 -1.88,0.859 -3.64,1.921 -5.35,3.21 -1.72,1.321 -3.21,2.93 -4.54,4.758 -1.28,1.883 -2.34,4.032 -3.12,6.492 -0.78,2.461 -1.17,5.231 -1.17,8.321 v 48.551 c 0,1.636 0.19,3.437 0.58,5.347 0.39,1.922 1.02,3.789 1.84,5.672 0.82,1.828 1.91,3.629 3.24,5.309 1.33,1.718 2.93,3.199 4.77,4.531 1.87,1.328 4.02,2.34 6.48,3.129 2.42,0.781 5.2,1.172 8.24,1.172 h 64.69 v -17.934 h -64.69 c -2.34,0 -4.14,-0.629 -5.35,-1.84 -1.25,-1.25 -1.87,-3.078 -1.87,-5.539 v -48.398 c 0,-2.313 0.62,-4.071 1.91,-5.352 1.25,-1.25 3.05,-1.879 5.31,-1.879 h 64.69 z"
       style="fill:#ff5e00;fill-opacity:1;fill-rule:nonzero;stroke:none"
       transform="matrix(0.13333333,0,0,-0.13333333,0,240)" />
    <path
       id="path29"
       d="m 1096.25,1140.9 c -37.81,24.06 -11.48,-4.57 -25.23,0 -12.58,2.3 -20.63,2.3 -22.9,0 -48.12,29.8 -38.98,20.62 -21.79,0 -17.19,8.01 -19.45,13.75 -19.45,0 -32.11,22.93 -34.419,6.87 -34.419,0 -26.332,6.87 -59.57,26.37 -32.07,0 37.808,-35.51 64.179,-65.31 0,-32.07 -42.379,28.63 -10.313,-6.88 0,-29.81 -3.442,-5.74 24.058,-43.55 0,-28.63 5.738,-9.18 9.179,-16.05 10.308,-21.8 12.621,-5.7 24.071,-12.57 27.5,-11.44 52.741,-30.939 40.121,-11.45 37.821,0 -11.45,21.76 48.12,-22.931 36.68,0 6.87,0 13.75,-1.13 19.49,-1.13 -1.17,-3.44 2.26,-12.62 17.19,-29.809 -33.25,25.199 24.06,-42.422 0,-32.109 -12.62,4.609 12.57,-30.942 0,-30.942 11.44,-22.89 9.14,-36.64 1.13,-32.07 27.5,-28.629 -22.93,11.449 -5.74,-14.879 34.37,-40.121 18.35,-40.121 -13.75,-21.801 6.87,-17.18 12.61,-34.371 -18.32,-19.449 -58.438,37.809 -20.63,-10.313 -26.37,-19.492 -151.252,122.621 -51.56,14.883 -34.381,-11.449 -67.609,48.128 -85.929,61.878 -21.75,0 116.871,-104.29 5.699,-16.051 -16.058,-8.04 -132.93,110 -48.121,38.981 -29.801,8.04 -22.891,13.75 -28.641,6.878 -19.461,0 25.199,-25.231 61.883,-64.18 4.57,-16.051 -13.75,13.75 -34.371,32.07 -40.109,35.511 1.172,0 -12.578,14.918 -4.57,1.168 l 2.3,-1.168 v -1.14 c -2.3,1.14 -2.3,2.308 -2.3,2.308 -3.442,2.262 -8.008,6.872 -14.891,12.582 17.191,-12.582 3.441,-3.441 -13.75,22.93 10.32,-10.32 -34.367,37.809 -11.481,26.36 -24.058,32.07 19.493,4.57 -4.57,27.5 4.57,-3.43 3.442,10.32 -28.629,38.949 28.629,-11.449 28.629,-18.321 10.313,6.871 -67.621,88.25 42.379,-18.32 3.437,34.379 -20.629,30.941 -24.07,33.241 -3.437,22.931 -8.051,20.62 -32.114,44.69 0,26.37 12.578,-4.61 0,18.32 -1.172,26.32 60.738,-45.82 18.359,3.44 0,27.5 -16.02,16.06 -16.02,22.93 0,8.05 -18.32,29.77 73.359,-45.86 0,28.63 -20.629,27.5 40.109,-10.31 0,27.5 -22.891,33.25 -61.879,73.32 1.172,24.07 11.437,-6.88 -28.672,46.99 1.129,25.19 61.879,-55 81.371,-55 2.308,21.8 69.879,-50.43 56.129,-34.38 3.43,20.62 52.699,-35.54 33.211,-4.61 4.57,36.64 -26.359,42.43 -49.25,66.49 6.879,30.94 69.883,-44.69 -1.129,19.49 10.313,25.24 -41.25,46.95 4.57,12.57 11.449,19.45 -53.828,58.44 16.051,1.17 12.609,14.92 14.891,9.14 21.762,16.02 35.512,19.45 11.488,4.61 26.367,5.75 42.418,5.75 103.131,0 129.501,-53.87 134.071,-148.95 v -1.17 l 186.75,27.5 c -6.87,103.12 -41.25,255.55 -312.809,255.55 -66.442,0 -121.442,-10.32 -166.129,-26.37 -9.184,-3.44 -20.633,-6.88 -32.114,-13.75 -19.449,4.57 -14.878,-14.88 -26.328,-16.06 13.75,-26.32 29.77,-53.82 -22.929,-18.32 2.308,-18.32 -44.692,13.75 -20.621,-22.93 -48.129,34.38 -51.571,24.07 -16.059,-24.06 18.359,-29.76 14.918,-46.95 -14.883,-27.5 -6.879,-4.57 84.801,-104.26 -12.617,-28.63 45.859,-56.13 -40.082,6.87 -9.141,-30.94 0,-12.62 -55,22.93 -6.871,-33.24 -20.629,1.17 3.43,-28.63 -6.879,-34.38 -1.172,-10.31 3.442,-27.5 -2.3,-37.81 64.179,-67.58 41.25,-49.26 -2.309,-18.32 -37.813,28.63 -48.121,30.94 -1.133,-20.62 20.621,-22.93 -9.18,-1.14 0,-20.63 -67.617,51.56 71.051,-73.32 3.442,-22.93 -71.059,57.31 105.429,-105.39 1.128,-22.89 -73.32,68.75 -76.757,66.45 -11.449,-9.18 -17.179,17.19 -43.551,40.12 -14.879,10.31 28.629,-26.36 50.391,-44.68 20.629,-22.93 -77.929,69.93 69.879,-74.45 5.699,-27.5 -18.32,6.88 52.731,-57.26 4.614,-22.89 -95.121,69.89 59.566,-67.61 -9.184,-29.8 58.442,-63.048 12.621,-24.06 8.012,-25.201 -1.141,-4.609 -4.57,-8.039 -4.57,-12.609 16.05,-189.07 88.242,-315.121 335.742,-315.121 11.437,0 20.617,1.133 30.937,4.57 -19.5,40.121 66.441,-43.519 35.501,3.441 68.75,-63.011 27.5,-1.14 26.37,8.04 -9.18,12.582 34.38,-18.36 4.57,12.582 21.8,-18.321 -51.562,58.437 25.24,-4.571 -77.931,83.629 22.89,4.571 26.32,9.18 12.62,2.269 26.37,-1.172 22.93,16.019 -20.62,25.231 12.62,9.18 18.32,12.61 5.75,5.75 13.75,11.449 17.19,17.191 l 33.24,-68.75 h 68.75 V 1140.9 Z M 940.391,1017.15 c 10.308,-8.01 18.32,-8.01 10.308,11.44 -33.238,19.5 -74.488,48.13 -10.308,-11.44 z m 144.379,-2.31 c 5.74,0 6.87,0 4.61,2.31 12.57,-10.31 4.57,-5.74 -4.61,-2.31 z"
       style="fill:#ff5e00;fill-opacity:1;fill-rule:nonzero;stroke:none"
       transform="matrix(0.13333333,0,0,-0.13333333,0,240)" />
    <path
       id="path30"
       d="m 263.59,1536.41 c 83.051,83.04 178.398,147.3 286.101,192.85 C 661.172,1776.41 777.93,1800 900,1800 c 122.07,0 238.83,-23.59 350.31,-70.74 107.7,-45.55 203.05,-109.81 286.1,-192.85 83,-83.05 147.3,-178.4 192.85,-286.1 47.19,-111.44 70.74,-228.24 70.74,-350.31 0,-122.07 -23.55,-238.828 -70.74,-350.309 -6.17,-14.609 -12.66,-28.953 -19.53,-43.089 l -9.81,0.117 c 7.46,15.23 14.53,30.703 21.17,46.402 46.68,110.399 70.04,226.02 70.04,346.879 0,120.86 -23.36,236.48 -70.04,346.88 -45.07,106.6 -108.75,201.01 -190.97,283.24 -82.23,82.22 -176.64,145.9 -283.24,190.97 -110.4,46.68 -226.02,70.04 -346.88,70.04 -120.859,0 -236.48,-23.36 -346.879,-70.04 C 446.52,1676.02 352.109,1612.34 269.879,1530.12 187.66,1447.89 123.98,1353.48 78.9102,1246.88 32.2305,1136.48 8.87109,1020.86 8.87109,900 8.87109,779.141 32.2305,663.52 78.9102,553.121 85.6992,537.031 92.9297,521.25 100.59,505.699 H 90.6992 C 83.6719,520.121 77.0313,534.77 70.7383,549.691 23.5898,661.172 0,777.93 0,900 c 0,122.07 23.5898,238.83 70.7383,350.31 45.5507,107.7 109.8127,203.05 192.8517,286.1 z M 1536.41,263.59 c -83.05,-83 -178.4,-147.301 -286.1,-192.8517 C 1138.87,23.5898 1022.07,0 900,0 777.93,0 661.172,23.5898 549.691,70.7383 441.988,116.289 346.641,180.551 263.59,263.59 c -33.789,33.832 -64.488,69.691 -92.11,107.582 l 11.84,-1.094 C 209.41,334.879 238.281,301.48 269.879,269.879 352.109,187.66 446.52,123.98 553.121,78.9102 663.52,32.2305 779.141,8.87109 900,8.87109 c 120.86,0 236.48,23.35941 346.88,70.03911 106.6,45.0698 201.01,108.7498 283.24,190.9688 22.54,22.543 43.67,45.98 63.43,70.351 l 20.12,11.141 C 1590,320.699 1564.26,291.48 1536.41,263.59 Z"
       style="fill:#ff5e00;fill-opacity:1;fill-rule:nonzero;stroke:none"
       transform="matrix(0.13333333,0,0,-0.13333333,0,240)" />
  </g>
</svg>
